PathFileType	4	(X/Y/Z)	C:/Users/beibeiliu/ov580/test_trc/User3\out8_training_dense_right.trc
DataRate	CameraRate	NumFrames	NumMarkers	Units	OrigDataRate	OrigDataStartFrame	OrigNumFrames
120	120	12	19	mm	120	438	500
Frame#	Time	ThumbCMC			ThumbMCP			ThumbIP			ThumbTip			IndexMCP			IndexPIP			IndexTip			MiddleMCP			MiddlePIP			MiddleTip			RingMCP			RingPIP			RingTip			PinkyMCP			PinkyPIP			PinkyTip			BackHand1			BackHand2			BackHand3	
		X0	Y0	Z0	X1	Y1	Z1	X2	Y2	Z2	X3	Y3	Z3	X4	Y4	Z4	X5	Y5	Z5	X6	Y6	Z6	X7	Y7	Z7	X8	Y8	Z8	X9	Y9	Z9	X10	Y10	Z10	X11	Y11	Z11	X12	Y12	Z12	X13	Y13	Z13	X14	Y14	Z14	X15	Y15	Z15	X16	Y16	Z16	X17	Y17	Z17	X18	Y18	Z18	
437	3.64167	122.577	57.4159	38.1071	111.166	49.0151	8.13038	102.108	45.406	-18.404	98.063	40.6023	-44.2543	135.668	98.1009	-23.2135	123.354	104.611	-50.3079	116.535	104.555	-71.0541	162.585	94.2062	-32.2616	155.112	98.0828	-63.5516	149.655	94.5512	-92.9004	171.43	65.4564	-36.7255	163.086	48.4163	-53.843	147.677	21.6751	-57.2694	185.654	46.0294	-26.6436	169.019	27.9667	-35.4298	146.484	12.305	-17.1455	185.495	72.6621	20.4095	186.413	61.6061	51.2019	156.802	80.0429	40.8262	
438	3.65	125.379	56.0022	38.0863	112.092	47.0277	8.52115	101.912	43.8763	-21.1164	103.238	38.2294	-43.4672	132.946	99.3037	-25.0657	125.093	102.077	-49.2067	112.695	105.318	-74.4821	164.158	91.0581	-32.743	158.261	95.749	-61.3636	151.855	93.1659	-94.0334	173.368	62.7165	-33.5216	159.038	39.9963	-53.1143	143.845	17.8233	-50.0011	182.975	43.8521	-24.8088	165.487	21.4765	-28.7435	149.555	10.2447	-7.55631	184.821	73.6462	19.6331	187.741	61.8125	49.4823	155.439	79.497	40.2464	
439	3.65833	123.743	54.7476	37.5062	114.789	46.1631	5.59335	104.606	41.2206	-22.4644	101.091	35.2831	-44.1603	135.376	95.0603	-26.1266	122.685	100.207	-50.7476	119.307	100.973	-74.8323	166.539	87.7402	-33.9357	159.065	91.6687	-61.8913	157.733	84.5576	-95.8372	173.748	56.0292	-34.8195	158.585	36.006	-49.0688	144.5	5.21069	-38.6617	181.041	41.7823	-22.7956	165.317	16.3154	-23.6834	149.518	7.99638	0.264362	185.635	71.6017	23.2366	187.813	60.4757	54.7114	152.43	80.1742	38.4069	
440	3.66667	122.948	52.7877	38.6611	114.004	42.995	9.63657	105.584	37.6148	-20.6013	102.998	31.6961	-43.8341	134.498	91.7187	-27.017	125.097	95.2652	-50.0373	120.53	95.8063	-78.5401	165.162	84.0872	-36.9904	159.497	83.1469	-62.3688	157.228	74.4804	-97.9625	170.876	51.8235	-33.515	160.603	28.3582	-44.2162	142.318	1.92726	-27.5088	182.012	35.548	-23.7435	165.142	13.1905	-19.7665	153.77	7.97528	0.207409	185.992	69.8816	20.7235	189.333	62.0089	51.5572	156.5	78.7178	37.4643	
441	3.675	127.136	51.585	34.146	116.541	42.1643	4.21135	106.588	35.2938	-23.962	106.013	28.5039	-45.0608	137.026	87.5148	-28.5877	128.696	88.5441	-52.959	119.371	90.1105	-77.4226	161.728	78.4377	-41.2688	160.619	71.3276	-67.0234	150.468	63.7995	-95.6788	171.145	44.6491	-33.587	157.634	17.489	-40.0928	144.663	-0.973288	-21.2034	182.594	30.0222	-24.0751	165.588	10.5148	-18.9168	154.328	5.50098	8.1759	186.201	68.9786	18.5689	186.85	62.6826	48.4066	156.375	77.2951	38.1079	
442	3.68333	127.245	49.3795	37.0252	114.401	39.0475	5.73557	108.404	30.6811	-20.4213	103.199	22.6133	-44.4877	134.554	83.0262	-34.8572	126.391	83.078	-57.869	119.641	83.8064	-81.7132	161.744	71.0658	-41.2716	154.425	63.8759	-68.7563	148.282	51.8247	-94.9958	168.772	40.6843	-30.7554	152.653	13.7228	-35.188	139.732	-3.21754	-12.6586	180.823	26.9859	-21.2235	163.093	6.73494	-14.7711	153.699	2.27044	12.2849	185.971	65.7598	19.0456	188.331	56.7561	50.209	158.808	73.5073	33.6111	
443	3.69167	125.097	50.3884	34.0168	114.884	37.9944	5.17126	105.899	28.8989	-20.4987	102.78	20.1395	-43.2094	136.009	77.2709	-31.1439	127.014	76.6436	-58.1381	113.79	76.1773	-81.4571	158.038	64.1114	-43.13	151.146	52.1872	-70.2895	142.992	39.0221	-93.0589	165.186	31.4352	-29.9904	146.564	5.82588	-29.3549	132.943	-5.02793	-4.50588	175.845	17.6317	-21.5302	155.131	5.12212	-10.7624	148.818	6.73837	18.0183	188.469	59.4301	17.0188	190.676	56.1816	45.6394	160.711	71.9877	33.5648	
444	3.7	123.144	50.9007	39.0668	113.513	36.5108	9.18332	103.843	27.6613	-15.1005	100.056	19.1447	-35.0998	133.689	73.7693	-35.6164	119.053	75.6521	-57.1961	107.769	74.6899	-78.275	153.53	56.2041	-44.3334	142.917	45.8294	-68.7935	129.309	33.0915	-93.0293	157.718	24.6978	-29.8349	140.777	3.66983	-25.8177	127.551	-6.88618	6.75108	172.243	14.0368	-17.1811	147.817	0.548024	-4.12554	143.373	7.09339	24.4026	184.729	57.7779	12.1234	187.418	52.5692	47.751	160.394	70.5996	34.6943	
445	3.70833	122.767	52.893	42.132	109.154	40.0847	11.3066	101.153	32.3455	-15.9153	93.3661	24.0302	-33.1496	131.084	77.0574	-32.721	116.97	79.2287	-49.1895	108.182	80.5671	-72.2806	150.552	55.8313	-43.3812	139.482	47.9247	-65.2256	126.946	31.829	-90.7795	151.038	27.6701	-27.3178	135.939	3.32928	-23.9548	119.491	-5.47952	1.59785	163.649	13.3184	-17.196	139.976	1.88953	-3.17557	135.312	7.01573	25.0764	184.172	52.5954	15.4787	188.603	48.4848	44.224	161.511	70.3655	38.0257	
446	3.71667	126.204	55.4742	41.3756	106.124	45.456	16.2495	95.4906	40.2886	-14.9753	94.147	32.7729	-31.8545	132.21	83.5386	-25.4568	120.21	87.4707	-52.0271	110.837	91.7269	-68.5623	151.612	61.6605	-42.2821	140.814	56.2202	-62.0959	124.306	44.6128	-89.3747	148.758	31.3449	-27.7008	132.186	10.9243	-27.0098	116.244	-1.26215	-1.69911	159.789	15.0822	-17.0396	137.874	4.84394	-3.23213	130.23	9.77906	25.9804	183.224	54.2686	18.5385	187.664	49.7594	47.109	159.521	73.4292	40.4651	
447	3.725	122.158	58.6836	45.7562	108.749	52.6686	10.6987	99.6186	50.6738	-15.4391	93.3822	45.5148	-38.6386	134.033	93.3337	-22.1254	124.708	99.564	-44.0446	118.886	106.635	-67.0022	156.356	69.0193	-35.9648	143.628	65.4668	-61.5591	129.816	57.3429	-90.8006	153.364	43.2248	-27.249	130.369	22.1194	-30.4107	111.993	5.80531	-5.12243	162.227	24.9631	-17.4797	137.986	11.2535	-6.58911	128.723	13.4272	18.7148	184.098	59.1281	15.1538	185.657	50.1883	46.7837	160.539	73.9687	40.2279	
448	3.73333	127.094	61.4453	41.6185	108.978	59.7437	11.4577	105.176	57.4836	-16.9809	101.187	56.3948	-44.3892	141.009	101.538	-20.1982	135.507	110.547	-47.8797	131.381	118.344	-66.3364	163.895	76.7933	-36.5496	153.596	75.4247	-62.978	144.128	66.4407	-93.6799	158.515	47.5717	-31.1012	137.164	24.4703	-33.7389	118.299	9.62499	-14.1121	168.611	30.9603	-19.7491	142.608	20.1184	-13.9621	130.57	18.2365	10.605	185.73	66.096	21.2257	185.841	52.6713	52.4998	159.435	81.4068	41.798	
